<svg width="430" height="263" viewBox="0 0 430 263" fill="none" xmlns="http://www.w3.org/2000/svg">
<path d="M425.861 116.194L425.81 116.273C425.771 116.327 425.744 116.388 425.705 116.442L425.65 116.51C425.583 116.592 425.507 116.672 425.432 116.752C425.362 116.826 425.299 116.906 425.224 116.978L425.202 116.999L425.173 117.023C425.101 117.089 425.016 117.147 424.934 117.209C424.85 117.28 424.766 117.35 424.678 117.41L424.607 117.458C424.549 117.494 424.485 117.518 424.426 117.553L424.344 117.594C424.257 117.644 424.17 117.695 424.08 117.738L423.973 117.782L423.952 117.795C423.897 117.816 423.84 117.825 423.779 117.844L423.719 117.863C423.628 117.893 423.537 117.932 423.443 117.955L423.325 117.979C423.239 117.999 423.154 118.001 423.07 118.016C422.976 118.026 422.889 118.043 422.797 118.048L422.684 118.052C422.587 118.055 422.502 118.045 422.41 118.037C422.328 118.034 422.247 118.035 422.166 118.023L422.053 118.006C421.965 117.988 421.877 117.957 421.791 117.934L421.739 117.92C421.683 117.907 421.63 117.902 421.576 117.884L421.531 117.866L421.512 117.861C410.783 114.011 400.045 110.641 389.433 107.99C387.822 107.585 387.109 105.845 387.826 104.055C388.544 102.27 390.439 101.133 392.082 101.544C398.224 103.084 404.402 104.854 410.586 106.816C397.169 93.2982 382.812 80.698 367.055 70.2941C359.179 65.1085 350.957 60.4886 342.383 56.7541C333.815 53.022 324.895 50.1752 315.78 48.5877C306.667 46.9951 297.37 46.6792 288.238 47.7978C283.669 48.356 279.148 49.2608 274.708 50.4906C272.493 51.1015 270.298 51.8207 268.047 52.57C265.819 53.3145 263.604 54.1017 261.394 54.9165C243.743 61.4516 226.924 70.209 210.984 80.373C195.031 90.5375 179.932 102.088 165.352 114.294C158.06 120.404 150.899 126.666 143.786 133.043C136.659 139.416 129.483 145.817 122.06 151.973C114.642 158.131 106.986 164.068 98.9115 169.49C90.8367 174.899 82.3415 179.822 73.2375 183.638C64.1559 187.437 54.3699 190.127 44.2263 190.439C39.1702 190.6 34.0548 190.149 29.0778 189.017C24.0985 187.891 19.2716 186.085 14.7636 183.731C13.1511 182.889 12.7043 180.755 13.7062 179.054C14.7141 177.347 16.6266 176.62 18.0264 177.351C26.0087 181.556 34.9691 183.571 43.971 183.254C52.9868 182.978 61.952 180.558 70.4653 176.998C78.9961 173.423 87.1239 168.731 94.9221 163.5C102.723 158.264 110.199 152.47 117.496 146.418C124.791 140.362 131.896 134.031 139.025 127.653C146.156 121.265 153.395 114.931 160.761 108.758C175.503 96.417 190.84 84.6766 207.138 74.29C223.418 63.9143 240.691 54.9062 258.895 48.1684C261.17 47.3243 263.453 46.5153 265.757 45.746C268.038 44.9854 270.384 44.2169 272.776 43.5557C277.543 42.235 282.416 41.2599 287.339 40.6605C297.191 39.4515 307.219 39.797 316.962 41.5006C326.72 43.1985 336.184 46.2321 345.197 50.1589C354.215 54.088 362.788 58.9128 370.949 64.2857C387.278 75.0718 401.973 87.989 415.635 101.756C413.628 95.4506 411.438 89.1424 408.997 82.8268C408.349 81.1432 409.206 79.0733 410.952 78.2167C412.693 77.3578 414.669 78.0612 415.329 79.7747C419.656 91.0128 423.23 102.208 426.338 113.363L426.341 113.384L426.355 113.43C426.371 113.484 426.371 113.54 426.384 113.595L426.393 113.651C426.409 113.739 426.435 113.828 426.444 113.919L426.454 114.036C426.461 114.119 426.453 114.199 426.45 114.282C426.452 114.375 426.456 114.464 426.447 114.562L426.434 114.674C426.418 114.766 426.397 114.856 426.376 114.945C426.359 115.033 426.347 115.115 426.325 115.201L426.289 115.318C426.257 115.412 426.216 115.496 426.179 115.587L426.151 115.649C426.13 115.705 426.118 115.761 426.087 115.815L426.078 115.836L426.024 115.938C425.976 116.025 425.914 116.109 425.861 116.193" fill="#BFBFBF"/>
</svg>
