<svg width="126" height="126" viewBox="0 0 126 126" fill="none" xmlns="http://www.w3.org/2000/svg">
<path d="M15.2199 66.8587C14.6991 65.6389 14.4307 64.3263 14.4307 62.9999C14.4307 61.6736 14.6991 60.361 15.2199 59.1412C19.4619 49.0612 26.2449 40.5824 34.7289 34.7444C43.2181 28.9064 53.0409 25.9612 63.0001 26.2709C72.9594 25.9612 82.7821 28.9064 91.2714 34.7444C99.7501 40.5824 106.538 49.0612 110.775 59.1412C111.296 60.361 111.564 61.6736 111.564 62.9999C111.564 64.3263 111.296 65.6389 110.775 66.8587C106.533 76.9387 99.7501 85.4174 91.2661 91.2554C82.7769 97.0934 72.9541 100.039 62.9949 99.7289C53.0356 100.039 43.2129 97.0934 34.7236 91.2554C26.2501 85.4174 19.4619 76.9387 15.2251 66.8587" stroke="#BFBFBF" stroke-width="3" stroke-linecap="round" stroke-linejoin="round"/>
<path d="M63 81.375C65.413 81.375 67.8024 80.8997 70.0318 79.9763C72.2612 79.0529 74.2868 77.6994 75.9931 75.9931C77.6994 74.2868 79.0529 72.2612 79.9763 70.0318C80.8997 67.8024 81.375 65.413 81.375 63C81.375 60.587 80.8997 58.1976 79.9763 55.9682C79.0529 53.7388 77.6994 51.7132 75.9931 50.0069C74.2868 48.3006 72.2612 46.9471 70.0318 46.0237C67.8024 45.1003 65.413 44.625 63 44.625C58.1266 44.625 53.4529 46.5609 50.0069 50.0069C46.5609 53.4529 44.625 58.1266 44.625 63C44.625 67.8734 46.5609 72.5471 50.0069 75.9931C53.4529 79.4391 58.1266 81.375 63 81.375Z" stroke="#BFBFBF" stroke-width="3" stroke-linecap="round" stroke-linejoin="round"/>
</svg>
