<svg width="244" height="70" viewBox="0 0 244 70" fill="none" xmlns="http://www.w3.org/2000/svg">
<path d="M67.0927 9.16918C45.1929 1.92754 33.4601 1.92972 13.5052 9.16918C11.2195 40.2227 16.04 52.0242 40.1209 65.6943C64.1647 51.8716 68.8336 39.2811 67.0927 9.16918Z" fill="#021D2F"/>
<path d="M53.9438 27.951C53.9438 35.6694 47.6868 41.9265 39.9683 41.9265C32.2499 41.9265 25.9928 35.6694 25.9928 27.951C25.9928 20.2325 32.2499 13.9755 39.9683 13.9755C47.6868 13.9755 53.9438 20.2325 53.9438 27.951Z" fill="#F2D953"/>
<path d="M38.2477 14.3787C36.9267 14.5946 36.5467 14.7925 36.1848 15.4761C35.859 16.1237 35.9314 16.2137 37.0172 16.5195C37.4695 16.6455 38.2657 16.9873 38.7905 17.2751C39.7134 17.7968 39.7496 17.7968 41.0525 17.5989C41.7944 17.473 43.0068 17.437 43.9115 17.509C45.6487 17.6349 45.3773 17.7788 46.3544 16.2677L46.644 15.8179L45.6487 15.3682C43.5496 14.4507 40.4553 14.0369 38.2477 14.3787Z" fill="#021C2F"/>
<path d="M46.4269 16.9333C46.1374 17.3291 45.884 17.7429 45.884 17.8328C45.884 17.9048 46.3002 18.6964 46.7888 19.5779C47.2955 20.4594 47.8203 21.4848 47.965 21.8266C48.1641 22.2944 48.5622 22.6902 49.286 23.1399C49.847 23.4997 50.6975 24.1654 51.186 24.5971L52.0546 25.4067L52.688 24.795C53.4299 24.0754 53.4299 23.7696 52.5794 21.9886C51.8918 20.5314 51.2041 19.5419 50.046 18.3725C49.1774 17.491 47.4222 16.1777 47.1145 16.1777C47.0422 16.1777 46.7345 16.5195 46.4269 16.9333Z" fill="#021C2F"/>
<path d="M34.1219 17.1852C33.4886 17.545 32.4933 18.1566 31.9143 18.5344C31.0095 19.1461 30.8466 19.362 30.5933 20.1895C30.1952 21.5208 29.9057 23.5717 30.0866 23.7336C30.3038 23.9315 32.4933 25.0829 33.1448 25.3347C33.6876 25.5506 33.7781 25.5146 34.9362 24.7411C35.6058 24.2913 36.6553 23.6616 37.2887 23.3558L38.4287 22.7621L38.8087 20.9631C39.0258 19.9557 39.2792 18.9302 39.3696 18.6604C39.5144 18.2286 39.4601 18.1207 39.0077 17.7968C38.4468 17.4011 36.0763 16.5375 35.5877 16.5375C35.4248 16.5375 34.7734 16.8254 34.1219 17.1852Z" fill="#021C2F"/>
<path d="M29.2361 19.7218C28.5123 20.6033 27.3361 22.996 26.9923 24.3273C26.5399 26.0363 26.4313 27.5295 26.7208 27.7094C27.1913 27.9973 27.3904 27.8713 27.7885 26.9359C28.0056 26.4141 28.4942 25.5146 28.8742 24.903C29.4171 24.0394 29.598 23.5177 29.7609 22.3304C29.8876 21.5028 30.1047 20.5134 30.2495 20.0996C30.6838 18.8583 30.1409 18.6604 29.2361 19.7218Z" fill="#021C2F"/>
<path d="M36.5467 24.1834C33.4524 26.0364 33.7238 25.6226 33.6152 28.447C33.4886 31.7752 33.5428 31.9371 34.8095 32.8546C35.3705 33.2684 36.42 33.952 37.1438 34.3478L38.4467 35.1034L40.2201 34.1679C41.1972 33.6642 42.3735 32.9806 42.8258 32.6568L43.6582 32.0451L43.7668 30.5519C43.9478 28.4111 43.9297 27.0618 43.7125 26.5401C43.5497 26.0903 41.7944 24.849 39.5144 23.5717L38.5191 23.014L36.5467 24.1834Z" fill="#021C2F"/>
<path d="M46.8792 23.9675C46.264 24.4892 45.4316 25.1908 44.9792 25.5506L44.2011 26.2163L44.1287 29.0947L44.0744 31.9911L45.0154 32.6927C46.1011 33.4843 48.0192 34.7076 48.164 34.7076C48.4716 34.7076 50.9688 32.6208 51.4031 31.9911C51.9098 31.2895 51.9279 31.1636 52.0002 28.6449L52.0907 26.0364L51.204 25.1548C50.245 24.1834 48.5983 23.014 48.2002 23.014C48.0735 23.014 47.4764 23.4458 46.8792 23.9675Z" fill="#021C2F"/>
<path d="M26.6304 28.1772C26.2866 28.519 26.8475 31.4514 27.6075 33.2684C28.3314 35.0315 30.1228 37.658 30.4123 37.3702C30.4666 37.3162 30.358 36.9384 30.159 36.5246C29.9419 36.1289 29.6885 35.1934 29.5799 34.4558C29.4533 33.4663 29.2361 32.8367 28.7837 32.0991C28.458 31.5414 27.9875 30.4799 27.7523 29.7243C27.3723 28.501 26.938 27.8893 26.6304 28.1772Z" fill="#021C2F"/>
<path d="M51.1498 32.8187C50.7336 33.2684 49.865 34.006 49.2317 34.4378C48.3631 35.0674 47.9107 35.5532 47.3317 36.5606C46.8974 37.2622 46.3002 38.1618 46.0107 38.5395L45.4678 39.2412L45.9926 39.6729C46.5897 40.1587 46.6621 40.1407 47.965 39.2771C49.5755 38.2337 51.5117 36.0209 52.3622 34.3298C52.7603 33.5203 53.0498 32.7467 52.9956 32.6388C52.9413 32.4589 52.1632 31.9911 51.9822 32.0091C51.9641 32.0091 51.5841 32.3869 51.1498 32.8187Z" fill="#021C2F"/>
<path d="M31.4257 32.8726L29.7428 33.3404L29.8514 34.2219C30.1952 36.7225 31.3895 38.1618 34.3933 39.6909L36.0943 40.5545L37.6867 40.0147C39.5144 39.3851 39.442 39.583 38.8086 37.0823L38.3744 35.3913L37.18 34.7796C36.5105 34.4558 35.4248 33.7721 34.7733 33.2684C34.1038 32.7827 33.4705 32.3689 33.3438 32.3869C33.2171 32.3869 32.3666 32.6208 31.4257 32.8726Z" fill="#021C2F"/>
<path d="M43.7125 39.601C43.1697 39.6909 42.0116 39.7269 41.1611 39.6909C39.822 39.601 39.4782 39.6549 38.8448 39.9608C38.4467 40.1587 37.7229 40.4105 37.2524 40.5365C36.782 40.6624 36.3839 40.8423 36.3477 40.9502C36.2391 41.2561 38.4467 41.6339 40.2744 41.6159C42.4459 41.5799 46.065 40.7523 46.065 40.2666C46.065 40.0687 45.1421 39.3851 44.9068 39.4031C44.7983 39.4211 44.2554 39.511 43.7125 39.601Z" fill="#021C2F"/>
<path d="M24.2268 34.3622C23.4163 32.385 22.9693 30.2202 22.9693 27.951C22.9693 18.6102 30.5415 11.038 39.8823 11.038C49.2231 11.038 56.7954 18.6102 56.7954 27.951C56.7954 37.2918 49.2231 44.864 39.8823 44.864C37.9927 44.864 36.1754 44.5539 34.4786 43.9822C23.6816 52.346 9.55158 62.5984 9.29267 62.1863C9.02902 61.7626 22.8501 49.9229 33.8374 41.4383C34.6521 41.804 35.5059 42.0981 36.3909 42.3125L36.5682 42.3544C37.6336 42.5985 38.7429 42.7276 39.8823 42.7276C48.0432 42.7276 54.659 36.1119 54.659 27.951C54.659 19.7901 48.0432 13.1743 39.8823 13.1743C31.7214 13.1744 25.1057 19.7901 25.1057 27.951C25.1057 29.7525 25.4282 31.4786 26.0184 33.075L26.0725 33.2189C26.3464 33.9366 26.6747 34.6273 27.0522 35.2863C15.8431 43.4137 0.255854 53.9361 0.00319972 53.4986C-0.237364 53.0785 13.1338 42.3915 24.2268 34.3622Z" fill="#F2D953"/>
<path d="M28.94 37.8815C29.6296 38.6409 30.3973 39.328 31.2302 39.9306C20.1167 48.3447 3.66688 59.894 3.3978 59.4463C3.13812 59.0122 17.7955 47.0518 28.94 37.8815Z" fill="#F2D953"/>
<path d="M39.5703 0C48.1712 -0.00024071 56.8727 1.8828 67.7471 5.44824L68.2666 5.61914L70.6787 6.41699L70.8262 8.95312C71.7023 24.1072 71.0354 35.5735 66.6758 45.0967C62.256 54.7508 54.3138 61.8479 41.9854 68.9355L40.1328 70L38.2754 68.9453C30.1715 64.3449 23.921 59.7985 19.3369 54.4893L22.3154 52.2148C26.391 56.88 32.0086 61.0417 39.5605 65.374L40.1211 65.6943C63.977 51.9796 68.7599 39.4773 67.1328 9.87109L67.0938 9.16895C45.194 1.92733 33.4607 1.92956 13.5059 9.16895L13.4531 9.89355C12.4642 23.8837 12.9678 33.9232 16.1035 42.002L12.9463 44.1699C9.13152 34.9609 8.68175 23.7793 9.77734 8.89453L9.95508 6.48047L12.2305 5.6543C22.4285 1.95456 30.8075 0.000305411 39.5703 0Z" fill="#F2D953"/>
<path d="M99.3366 29.6585H91.668L90.3991 33.3273H86.3442L93.2679 14.0455H97.7642L104.688 33.3273H100.605L99.3366 29.6585ZM98.2884 26.569L95.5023 18.5143L92.7162 26.569H98.2884ZM128.268 14.0731V33.3273H124.406V20.8038L119.248 33.3273H116.324L111.138 20.8038V33.3273H107.276V14.0731H111.662L117.786 28.3896L123.91 14.0731H128.268ZM142.521 30.2654H148.865V33.3273H138.659V14.0731H142.521V30.2654ZM155.182 17.1902V22.0175H161.664V25.0794H155.182V30.1826H162.492V33.3273H151.32V14.0455H162.492V17.1902H155.182ZM179.408 19.8659C178.966 19.0568 178.359 18.4407 177.587 18.0177C176.815 17.5948 175.914 17.3833 174.884 17.3833C173.744 17.3833 172.732 17.6407 171.849 18.1557C170.967 18.6706 170.277 19.4062 169.78 20.3624C169.284 21.3187 169.036 22.4221 169.036 23.6726C169.036 24.9599 169.284 26.0817 169.78 27.0379C170.295 27.9942 171.003 28.7298 171.905 29.2447C172.806 29.7596 173.854 30.0171 175.049 30.0171C176.52 30.0171 177.725 29.6309 178.663 28.8585C179.601 28.0678 180.217 26.9736 180.511 25.576H173.891V22.6244H184.318V25.9897C184.06 27.3322 183.509 28.5735 182.663 29.7137C181.817 30.8538 180.722 31.7733 179.38 32.4721C178.056 33.1526 176.566 33.4928 174.911 33.4928C173.054 33.4928 171.371 33.079 169.863 32.2515C168.374 31.4055 167.197 30.2378 166.332 28.7482C165.486 27.2586 165.064 25.5668 165.064 23.6726C165.064 21.7785 165.486 20.0866 166.332 18.597C167.197 17.089 168.374 15.9213 169.863 15.0937C171.371 14.2478 173.045 13.8248 174.884 13.8248C177.054 13.8248 178.939 14.3582 180.539 15.4248C182.138 16.473 183.242 17.9534 183.849 19.8659H179.408ZM198.981 29.6585H191.313L190.044 33.3273H185.989L192.912 14.0455H197.409L204.333 33.3273H200.25L198.981 29.6585ZM197.933 26.569L195.147 18.5143L192.361 26.569H197.933ZM205.983 23.6726C205.983 21.7785 206.406 20.0866 207.252 18.597C208.116 17.089 209.284 15.9213 210.755 15.0937C212.244 14.2478 213.909 13.8248 215.748 13.8248C217.899 13.8248 219.784 14.3765 221.403 15.4799C223.021 16.5833 224.152 18.1097 224.795 20.059H220.354C219.913 19.1395 219.288 18.4499 218.479 17.9901C217.688 17.5304 216.768 17.3005 215.72 17.3005C214.598 17.3005 213.596 17.5672 212.713 18.1005C211.849 18.6154 211.169 19.351 210.672 20.3073C210.194 21.2635 209.955 22.3853 209.955 23.6726C209.955 24.9415 210.194 26.0633 210.672 27.0379C211.169 27.9942 211.849 28.739 212.713 29.2723C213.596 29.7872 214.598 30.0447 215.72 30.0447C216.768 30.0447 217.688 29.8148 218.479 29.3551C219.288 28.8769 219.913 28.1781 220.354 27.2586H224.795C224.152 29.2263 223.021 30.7619 221.403 31.8653C219.803 32.9503 217.918 33.4928 215.748 33.4928C213.909 33.4928 212.244 33.079 210.755 32.2515C209.284 31.4055 208.116 30.2378 207.252 28.7482C206.406 27.2586 205.983 25.5668 205.983 23.6726ZM243.404 14.0731L236.894 26.6242V33.3273H233.032V26.6242L226.494 14.0731H230.852L234.99 22.8726L239.1 14.0731H243.404Z" fill="white"/>
<path d="M91.524 57.5953C90.655 57.5953 89.873 57.4463 89.1779 57.1484C88.4827 56.8381 87.9366 56.4036 87.5393 55.8451C87.1421 55.2865 86.9435 54.6348 86.9435 53.89H89.2151C89.2648 54.4486 89.482 54.9079 89.8668 55.2678C90.264 55.6278 90.8164 55.8078 91.524 55.8078C92.2563 55.8078 92.8273 55.634 93.237 55.2865C93.6466 54.9265 93.8514 54.4672 93.8514 53.9086C93.8514 53.4741 93.7211 53.1204 93.4604 52.8473C93.2121 52.5742 92.8956 52.3632 92.5108 52.2142C92.1384 52.0653 91.6171 51.9039 90.9467 51.7301C90.1027 51.5067 89.4137 51.2832 88.88 51.0598C88.3586 50.8239 87.9117 50.464 87.5393 49.9798C87.1669 49.4957 86.9807 48.8502 86.9807 48.0434C86.9807 47.2986 87.1669 46.6469 87.5393 46.0883C87.9117 45.5297 88.4331 45.1015 89.1034 44.8036C89.7737 44.5056 90.5495 44.3567 91.4309 44.3567C92.6846 44.3567 93.7087 44.6732 94.5031 45.3063C95.31 45.927 95.7568 46.7835 95.8437 47.8758H93.4976C93.4604 47.4041 93.237 47.0007 92.8273 46.6655C92.4177 46.3304 91.8777 46.1628 91.2074 46.1628C90.5992 46.1628 90.1027 46.318 89.7178 46.6283C89.333 46.9386 89.1406 47.3855 89.1406 47.9689C89.1406 48.3661 89.2586 48.6951 89.4944 48.9558C89.7427 49.204 90.053 49.4026 90.4254 49.5516C90.7978 49.7005 91.3067 49.8619 91.9522 50.0357C92.8087 50.2716 93.5039 50.5074 94.0376 50.7433C94.5838 50.9791 95.0431 51.3453 95.4155 51.8418C95.8003 52.3259 95.9927 52.9776 95.9927 53.7969C95.9927 54.4548 95.8127 55.0754 95.4527 55.6589C95.1052 56.2423 94.59 56.714 93.9073 57.074C93.237 57.4215 92.4425 57.5953 91.524 57.5953ZM109.967 48.3785C109.967 49.0364 109.812 49.6571 109.502 50.2405C109.191 50.8239 108.695 51.3018 108.012 51.6742C107.329 52.0342 106.454 52.2142 105.387 52.2142H103.041V57.465H100.918V44.5243H105.387C106.38 44.5243 107.218 44.6981 107.9 45.0456C108.595 45.3808 109.111 45.8401 109.446 46.4235C109.793 47.0069 109.967 47.6586 109.967 48.3785ZM105.387 50.4826C106.193 50.4826 106.796 50.3026 107.193 49.9426C107.59 49.5702 107.789 49.0489 107.789 48.3785C107.789 46.9634 106.988 46.2559 105.387 46.2559H103.041V50.4826H105.387ZM120.315 57.5953C119.11 57.5953 117.999 57.316 116.982 56.7574C115.976 56.1864 115.175 55.3982 114.58 54.3927C113.996 53.3748 113.705 52.2328 113.705 50.9667C113.705 49.7005 113.996 48.5647 114.58 47.5593C115.175 46.5538 115.976 45.7718 116.982 45.2132C117.999 44.6422 119.11 44.3567 120.315 44.3567C121.531 44.3567 122.642 44.6422 123.647 45.2132C124.665 45.7718 125.466 46.5538 126.049 47.5593C126.633 48.5647 126.925 49.7005 126.925 50.9667C126.925 52.2328 126.633 53.3748 126.049 54.3927C125.466 55.3982 124.665 56.1864 123.647 56.7574C122.642 57.316 121.531 57.5953 120.315 57.5953ZM120.315 55.752C121.171 55.752 121.934 55.5595 122.605 55.1747C123.275 54.7775 123.796 54.2189 124.169 53.499C124.554 52.7666 124.746 51.9225 124.746 50.9667C124.746 50.0109 124.554 49.173 124.169 48.453C123.796 47.7331 123.275 47.1807 122.605 46.7959C121.934 46.4111 121.171 46.2187 120.315 46.2187C119.458 46.2187 118.695 46.4111 118.024 46.7959C117.354 47.1807 116.826 47.7331 116.442 48.453C116.069 49.173 115.883 50.0109 115.883 50.9667C115.883 51.9225 116.069 52.7666 116.442 53.499C116.826 54.2189 117.354 54.7775 118.024 55.1747C118.695 55.5595 119.458 55.752 120.315 55.752ZM138.156 57.465L135.176 52.2887H133.556V57.465H131.434V44.5243H135.903C136.896 44.5243 137.734 44.6981 138.416 45.0456C139.111 45.3932 139.627 45.8587 139.962 46.4421C140.309 47.0255 140.483 47.6772 140.483 48.3972C140.483 49.2413 140.235 50.0109 139.738 50.706C139.254 51.3887 138.503 51.8542 137.485 52.1025L140.688 57.465H138.156ZM133.556 50.5943H135.903C136.697 50.5943 137.293 50.3957 137.69 49.9985C138.1 49.6012 138.305 49.0675 138.305 48.3972C138.305 47.7269 138.106 47.2055 137.709 46.8331C137.311 46.4483 136.709 46.2559 135.903 46.2559H133.556V50.5943ZM153.979 44.5243V46.2559H150.535V57.465H148.412V46.2559H144.949V44.5243H153.979ZM162.813 57.5953C161.945 57.5953 161.162 57.4463 160.467 57.1484C159.772 56.8381 159.226 56.4036 158.829 55.8451C158.432 55.2865 158.233 54.6348 158.233 53.89H160.505C160.554 54.4486 160.771 54.9079 161.156 55.2678C161.554 55.6278 162.106 55.8078 162.813 55.8078C163.546 55.8078 164.117 55.634 164.526 55.2865C164.936 54.9265 165.141 54.4672 165.141 53.9086C165.141 53.4741 165.011 53.1204 164.75 52.8473C164.502 52.5742 164.185 52.3632 163.8 52.2142C163.428 52.0653 162.907 51.9039 162.236 51.7301C161.392 51.5067 160.703 51.2832 160.169 51.0598C159.648 50.8239 159.201 50.464 158.829 49.9798C158.456 49.4957 158.27 48.8502 158.27 48.0434C158.27 47.2986 158.456 46.6469 158.829 46.0883C159.201 45.5297 159.723 45.1015 160.393 44.8036C161.063 44.5056 161.839 44.3567 162.72 44.3567C163.974 44.3567 164.998 44.6732 165.793 45.3063C166.599 45.927 167.046 46.7835 167.133 47.8758H164.787C164.75 47.4041 164.526 47.0007 164.117 46.6655C163.707 46.3304 163.167 46.1628 162.497 46.1628C161.889 46.1628 161.392 46.318 161.007 46.6283C160.623 46.9386 160.43 47.3855 160.43 47.9689C160.43 48.3661 160.548 48.6951 160.784 48.9558C161.032 49.204 161.342 49.4026 161.715 49.5516C162.087 49.7005 162.596 49.8619 163.242 50.0357C164.098 50.2716 164.793 50.5074 165.327 50.7433C165.873 50.9791 166.333 51.3453 166.705 51.8418C167.09 52.3259 167.282 52.9776 167.282 53.7969C167.282 54.4548 167.102 55.0754 166.742 55.6589C166.395 56.2423 165.879 56.714 165.197 57.074C164.526 57.4215 163.732 57.5953 162.813 57.5953Z" fill="white"/>
</svg>
