<svg width="400" height="394" viewBox="0 0 400 394" fill="none" xmlns="http://www.w3.org/2000/svg">
<path d="M376.859 51.5025C253.849 10.8264 187.946 10.8386 75.8595 51.5025C63.0208 225.929 90.0977 292.218 225.36 369.002C360.412 291.361 386.638 220.64 376.859 51.5025Z" fill="#021D2F"/>
<path d="M303.001 157C303.001 200.354 267.855 235.5 224.501 235.5C181.147 235.5 146.001 200.354 146.001 157C146.001 113.646 181.147 78.5 224.501 78.5C267.855 78.5 303.001 113.646 303.001 157Z" fill="#F2D953"/>
<path d="M214.836 80.7648C207.416 81.9774 205.282 83.089 203.249 86.9289C201.419 90.5667 201.826 91.072 207.924 92.7898C210.465 93.4972 214.938 95.4171 217.885 97.034C223.069 99.9644 223.272 99.9644 230.591 98.8529C234.758 98.1455 241.568 97.9434 246.65 98.3476C256.408 99.055 254.883 99.8634 260.372 91.3751L261.998 88.8489L256.408 86.3226C244.617 81.169 227.236 78.8449 214.836 80.7648Z" fill="#021C2F"/>
<path d="M260.779 95.114C259.152 97.3371 257.729 99.6613 257.729 100.167C257.729 100.571 260.067 105.017 262.812 109.968C265.658 114.92 268.605 120.68 269.418 122.6C270.536 125.227 272.772 127.45 276.838 129.976C279.989 131.997 284.766 135.736 287.511 138.162L292.389 142.709L295.947 139.273C300.114 135.231 300.114 133.513 295.337 123.509C291.475 115.324 287.612 109.766 281.107 103.198C276.228 98.2466 266.369 90.8699 264.641 90.8699C264.235 90.8699 262.507 92.7898 260.779 95.114Z" fill="#021C2F"/>
<path d="M191.662 96.5287C188.105 98.5497 182.514 101.985 179.262 104.107C174.18 107.543 173.265 108.756 171.842 113.404C169.606 120.882 167.979 132.402 168.996 133.311C170.216 134.423 182.514 140.89 186.173 142.305C189.223 143.517 189.731 143.315 196.236 138.97C199.997 136.444 205.892 132.907 209.449 131.189L215.853 127.854L217.987 117.749C219.207 112.09 220.63 106.331 221.138 104.815C221.951 102.39 221.646 101.783 219.105 99.9644C215.954 97.7413 202.639 92.8909 199.895 92.8909C198.98 92.8909 195.321 94.5077 191.662 96.5287Z" fill="#021C2F"/>
<path d="M164.218 110.777C160.153 115.728 153.546 129.168 151.615 136.646C149.074 146.246 148.464 154.633 150.09 155.643C152.733 157.26 153.851 156.553 156.087 151.298C157.307 148.368 160.051 143.315 162.186 139.879C165.235 135.029 166.251 132.098 167.166 125.429C167.878 120.781 169.097 115.223 169.91 112.899C172.35 105.926 169.301 104.815 164.218 110.777Z" fill="#021C2F"/>
<path d="M205.282 135.837C187.901 146.246 189.426 143.921 188.816 159.786C188.104 178.481 188.409 179.39 195.524 184.544C198.675 186.868 204.57 190.708 208.636 192.931L215.954 197.175L225.915 191.92C231.404 189.091 238.011 185.251 240.552 183.432L245.227 179.996L245.837 171.609C246.853 159.584 246.752 152.005 245.532 149.075C244.617 146.549 234.758 139.576 221.951 132.402L216.361 129.269L205.282 135.837Z" fill="#021C2F"/>
<path d="M263.319 134.625C259.863 137.555 255.188 141.496 252.647 143.517L248.276 147.256L247.87 163.424L247.565 179.693L252.85 183.634C258.949 188.08 269.723 194.952 270.536 194.952C272.264 194.952 286.29 183.23 288.73 179.693C291.576 175.752 291.677 175.045 292.084 160.898L292.592 146.246L287.612 141.294C282.225 135.837 272.975 129.269 270.739 129.269C270.028 129.269 266.673 131.694 263.319 134.625Z" fill="#021C2F"/>
<path d="M149.582 158.271C147.651 160.191 150.802 176.662 155.071 186.868C159.136 196.771 169.199 211.524 170.825 209.907C171.13 209.604 170.52 207.482 169.402 205.158C168.183 202.935 166.76 197.68 166.15 193.537C165.438 187.979 164.219 184.443 161.677 180.3C159.848 177.167 157.205 171.205 155.884 166.961C153.749 160.089 151.31 156.654 149.582 158.271Z" fill="#021C2F"/>
<path d="M287.307 184.342C284.969 186.868 280.091 191.011 276.533 193.436C271.654 196.973 269.113 199.701 265.861 205.36C263.421 209.301 260.067 214.354 258.441 216.476L255.392 220.417L258.339 222.842C261.693 225.57 262.1 225.469 269.418 220.619C278.464 214.758 289.34 202.329 294.117 192.83C296.353 188.283 297.98 183.937 297.675 183.331C297.37 182.321 292.999 179.693 291.983 179.794C291.881 179.794 289.747 181.916 287.307 184.342Z" fill="#021C2F"/>
<path d="M176.517 184.645L167.064 187.272L167.674 192.224C169.605 206.27 176.314 214.354 193.186 222.943L202.741 227.793L211.685 224.762C221.951 221.225 221.545 222.337 217.987 208.291L215.548 198.792L208.839 195.356C205.079 193.537 198.98 189.697 195.321 186.868C191.56 184.139 188.003 181.815 187.291 181.916C186.58 181.916 181.803 183.23 176.517 184.645Z" fill="#021C2F"/>
<path d="M245.532 222.438C242.483 222.943 235.978 223.145 231.201 222.943C223.679 222.438 221.748 222.741 218.19 224.459C215.954 225.57 211.889 226.985 209.246 227.692C206.603 228.4 204.367 229.41 204.164 230.016C203.554 231.734 215.954 233.856 226.22 233.755C238.417 233.553 258.746 228.905 258.746 226.177C258.746 225.065 253.562 221.225 252.241 221.326C251.631 221.427 248.581 221.932 245.532 222.438Z" fill="#021C2F"/>
<path d="M136.081 193.012C131.529 181.906 129.018 169.746 129.018 157C129.018 104.533 171.551 62.0002 224.018 62C276.485 62 319.018 104.533 319.018 157C319.018 209.467 276.485 252 224.018 252C213.404 252 203.196 250.258 193.665 247.047C133.019 294.026 53.651 351.614 52.1967 349.299C50.7158 346.919 128.349 280.416 190.064 232.758C194.64 234.812 199.436 236.464 204.407 237.668L205.403 237.903C211.387 239.275 217.618 240 224.018 240C269.858 240 307.018 202.84 307.018 157C307.018 111.16 269.858 74 224.018 74C178.178 74.0002 141.018 111.16 141.018 157C141.018 167.119 142.83 176.815 146.145 185.781L146.449 186.59C147.987 190.621 149.831 194.501 151.952 198.202C88.9905 243.854 1.43712 302.958 0.0179728 300.5C-1.33327 298.141 73.7719 238.112 136.081 193.012Z" fill="#F2D953"/>
<path d="M162.555 212.779C166.429 217.045 170.741 220.904 175.419 224.289C112.995 271.551 20.5968 336.423 19.0854 333.908C17.6267 331.47 99.9568 264.289 162.555 212.779Z" fill="#F2D953"/>
<path d="M222.262 0C270.574 -0.0016134 319.451 10.5758 380.534 30.6035L383.452 31.5645L397.001 36.0439L397.824 50.29C402.745 135.41 399.004 199.813 374.516 253.305C349.69 307.533 305.076 347.396 235.826 387.208L225.426 393.188L214.992 387.265C169.472 361.424 134.361 335.889 108.612 306.067L125.337 293.296C148.229 319.5 179.79 342.871 222.209 367.205L225.359 369.003C359.357 291.968 386.222 221.746 377.082 55.4482L376.859 51.5029C253.849 10.8269 187.946 10.8391 75.8594 51.5029L75.5654 55.5713C70.0102 134.16 72.8272 190.559 90.4443 235.939L72.7041 248.114C51.2742 196.386 48.7619 133.572 54.916 49.9609L55.9141 36.3994L68.6973 31.7617C125.979 10.9804 173.041 0.00173871 222.262 0Z" fill="#F2D953"/>
</svg>
