<svg width="126" height="126" viewBox="0 0 126 126" fill="none" xmlns="http://www.w3.org/2000/svg">
<path d="M63 15.75V106.312M63 106.312C55.272 106.312 47.8695 107.704 41.0288 110.25M63 106.312C70.728 106.312 78.1305 107.704 84.9712 110.25M98.4375 26.0925C86.697 24.4446 74.8556 23.6201 63 23.625C50.9723 23.625 39.1387 24.465 27.5625 26.0925M98.4375 26.0925C103.74 26.8432 108.99 27.7567 114.188 28.8225M98.4375 26.0925L112.193 82.404C112.833 85.0238 111.636 87.801 109.1 88.7145C105.68 89.9422 102.072 90.5675 98.4375 90.5625C94.8031 90.5675 91.1955 89.9422 87.7747 88.7145C85.239 87.801 84.042 85.0238 84.6772 82.404L98.4375 26.0978V26.0925ZM27.5625 26.0925C22.26 26.8432 17.01 27.7567 11.8125 28.8225M27.5625 26.0925L41.3175 82.404C41.958 85.0238 40.761 87.801 38.2253 88.7145C34.8045 89.9421 31.1968 90.5674 27.5625 90.5625C23.9282 90.5674 20.3205 89.9421 16.8998 88.7145C14.364 87.801 13.167 85.0238 13.8022 82.404L27.5625 26.0978V26.0925Z" stroke="#BFBFBF" stroke-width="3" stroke-linecap="round" stroke-linejoin="round"/>
</svg>
