<svg width="64" height="64" viewBox="0 0 64 64" fill="none" xmlns="http://www.w3.org/2000/svg">
<path d="M23.9999 10.6667V58.6667M34.6666 21.3334H39.9999M34.6666 32.0001H39.9999M15.9999 10.6667H45.3333C46.7477 10.6667 48.1043 11.2287 49.1045 12.2288C50.1047 13.229 50.6666 14.5856 50.6666 16.0001V48.0001C50.6666 49.4146 50.1047 50.7711 49.1045 51.7713C48.1043 52.7715 46.7477 53.3334 45.3333 53.3334H15.9999C15.2927 53.3334 14.6144 53.0525 14.1143 52.5524C13.6142 52.0523 13.3333 51.374 13.3333 50.6667V13.3334C13.3333 12.6262 13.6142 11.9479 14.1143 11.4478C14.6144 10.9477 15.2927 10.6667 15.9999 10.6667Z" stroke="#FCFCFC" stroke-width="2" stroke-linecap="round" stroke-linejoin="round"/>
</svg>
