<svg width="64" height="64" viewBox="0 0 64 64" fill="none" xmlns="http://www.w3.org/2000/svg">
<path d="M8 56V50.6667C8 47.8377 9.12381 45.1246 11.1242 43.1242C13.1246 41.1238 15.8377 40 18.6667 40H29.3333C32.1623 40 34.8754 41.1238 36.8758 43.1242C38.8762 45.1246 40 47.8377 40 50.6667V56M42.6667 8.34635C44.9611 8.93382 46.9948 10.2682 48.447 12.1392C49.8993 14.0101 50.6876 16.3112 50.6876 18.6797C50.6876 21.0481 49.8993 23.3492 48.447 25.2202C46.9948 27.0912 44.9611 28.4256 42.6667 29.013M56 55.9997V50.6664C55.9865 48.3122 55.1944 46.0285 53.7474 44.1715C52.3003 42.3144 50.2795 40.9883 48 40.3997M13.3333 18.6667C13.3333 21.4956 14.4571 24.2088 16.4575 26.2091C18.4579 28.2095 21.171 29.3333 24 29.3333C26.829 29.3333 29.5421 28.2095 31.5425 26.2091C33.5429 24.2088 34.6667 21.4956 34.6667 18.6667C34.6667 15.8377 33.5429 13.1246 31.5425 11.1242C29.5421 9.12381 26.829 8 24 8C21.171 8 18.4579 9.12381 16.4575 11.1242C14.4571 13.1246 13.3333 15.8377 13.3333 18.6667Z" stroke="#FCFCFC" stroke-width="2" stroke-linecap="round" stroke-linejoin="round"/>
</svg>
