<svg width="64" height="64" viewBox="0 0 64 64" fill="none" xmlns="http://www.w3.org/2000/svg">
<path d="M42.6667 8V18.6667M21.3334 8V18.6667M10.6667 29.3333H53.3334M29.3334 40H32.0001V48M10.6667 18.6667C10.6667 17.2522 11.2287 15.8956 12.2288 14.8954C13.229 13.8952 14.5856 13.3333 16.0001 13.3333H48.0001C49.4146 13.3333 50.7711 13.8952 51.7713 14.8954C52.7715 15.8956 53.3334 17.2522 53.3334 18.6667V50.6667C53.3334 52.0812 52.7715 53.4377 51.7713 54.4379C50.7711 55.4381 49.4146 56 48.0001 56H16.0001C14.5856 56 13.229 55.4381 12.2288 54.4379C11.2287 53.4377 10.6667 52.0812 10.6667 50.6667V18.6667Z" stroke="#FCFCFC" stroke-width="2" stroke-linecap="round" stroke-linejoin="round"/>
</svg>
