<svg width="126" height="125" viewBox="0 0 126 125" fill="none" xmlns="http://www.w3.org/2000/svg">
<path d="M78.75 98.9583C78.75 87.4478 64.6485 78.1249 47.25 78.1249C29.8515 78.1249 15.75 87.4478 15.75 98.9583M110.25 52.0833L89.25 72.9166L78.75 62.4999M47.25 62.4999C41.6805 62.4999 36.339 60.305 32.4008 56.398C28.4625 52.491 26.25 47.1919 26.25 41.6666C26.25 36.1412 28.4625 30.8422 32.4008 26.9352C36.339 23.0282 41.6805 20.8333 47.25 20.8333C52.8195 20.8333 58.161 23.0282 62.0992 26.9352C66.0375 30.8422 68.25 36.1412 68.25 41.6666C68.25 47.1919 66.0375 52.491 62.0992 56.398C58.161 60.305 52.8195 62.4999 47.25 62.4999Z" stroke="#BFBFBF" stroke-width="3" stroke-linecap="round" stroke-linejoin="round"/>
</svg>
