<svg width="300" height="161" viewBox="0 0 300 161" fill="none" xmlns="http://www.w3.org/2000/svg">
<path d="M56.4946 92.8646L91.0042 72.5245L109.474 104.196L63.2938 104.438L56.4946 92.8646ZM96.9856 56.9431L131.437 36.7647L170.608 103.884L124.544 104.115L96.9856 56.9431ZM136.367 20.1669L170.853 0L231.438 103.549L185.059 103.803L136.367 20.1669ZM52.3007 117.825C40.9221 117.883 31.7398 127.169 31.7982 138.569C31.8566 149.969 41.1441 159.152 52.5226 159.094C63.9129 159.036 73.0835 149.75 73.0251 138.35C72.9667 126.95 63.691 117.767 52.3007 117.825ZM52.4759 149.877C46.1791 149.912 41.0389 144.83 41.0039 138.523C40.9688 132.217 46.0506 127.077 52.3474 127.042C58.6442 127.007 63.7844 132.09 63.8195 138.396C63.8662 144.702 58.7844 149.842 52.4759 149.877Z" fill="white"/>
<path d="M63.9901 118.165L73.6981 118.113L73.9186 158.077L64.2106 158.13L63.9901 118.165ZM204.825 117.005C193.435 117.063 184.264 126.349 184.323 137.749C184.381 149.149 193.669 158.332 205.047 158.274C216.437 158.216 225.608 148.93 225.55 137.53C225.491 126.13 216.204 116.935 204.825 117.005ZM205 149.057C198.704 149.092 193.563 144.009 193.528 137.703C193.493 131.396 198.575 126.257 204.872 126.222C211.169 126.187 216.309 131.269 216.344 137.576C216.379 143.882 211.297 149.022 205 149.057Z" fill="white"/>
<path d="M216.517 117.345L226.225 117.293L226.445 157.257L216.737 157.309L216.517 117.345ZM98.2356 117.582C86.8453 117.64 77.6747 126.927 77.7331 138.327C77.7915 149.727 87.079 158.909 98.4576 158.852C109.848 158.794 119.018 149.507 118.96 138.107C118.902 126.707 109.614 117.513 98.2356 117.582ZM98.4108 149.634C92.1141 149.669 86.9738 144.587 86.9388 138.28C86.9038 131.974 91.9856 126.834 98.2823 126.799C104.579 126.765 109.719 131.847 109.754 138.153C109.789 144.46 104.708 149.6 98.4108 149.634Z" fill="white"/>
<path d="M109.841 104.19L119.549 104.137L119.845 157.823L110.137 157.875L109.841 104.19ZM159.825 117.247C148.435 117.305 139.264 126.592 139.322 137.992C139.381 149.392 148.668 158.574 160.047 158.517C171.437 158.459 180.608 149.173 180.549 137.772C180.479 126.372 171.203 117.178 159.825 117.247ZM160 149.3C153.703 149.334 148.563 144.252 148.528 137.946C148.493 131.639 153.575 126.499 159.872 126.465C166.168 126.43 171.309 131.512 171.344 137.819C171.379 144.125 166.297 149.265 160 149.3Z" fill="white"/>
<path d="M171.431 103.866L181.139 103.813L181.436 157.499L171.727 157.552L171.431 103.866ZM124.621 117.438L134.329 117.385L134.552 157.754L124.844 157.806L124.621 117.438ZM124.553 104.12L134.261 104.067L134.317 114.266L124.609 114.319L124.553 104.12ZM254.685 129.802L264.791 129.745C264.791 129.745 263.564 116.681 247.057 116.774C230.9 116.866 231.262 129.929 231.262 129.929C231.262 129.929 230.9 137.541 239.37 140.105C239.37 140.105 241.624 141.145 249.183 142.254C256.741 143.362 255.807 146.273 255.807 146.273C255.807 146.273 255.526 150.836 249.031 150.72C242.524 150.605 240.912 147.313 240.795 144.298L230.538 144.356C230.538 144.356 229.685 153.33 241.963 157.165C254.241 161 262.606 154.104 263.949 152.383C265.293 150.674 268.26 144.448 264.569 138.558C264.569 138.558 262.805 135.266 256.484 133.487C256.484 133.487 246.613 131.743 245.515 131.489C244.417 131.246 239.603 129.317 242.185 125.794C242.185 125.794 244.23 123.831 249.288 124.408C254.627 125.032 254.382 127.7 254.685 129.802Z" fill="white"/>
</svg>
