<svg width="295" height="74" viewBox="0 0 295 74" fill="none" xmlns="http://www.w3.org/2000/svg">
<rect y="6" width="33" height="33" fill="#CCCBEB"/>
<rect x="33" y="6" width="33" height="33" fill="#4C42F7"/>
<rect x="33" y="39" width="33" height="33" fill="#B9B7EC"/>
<rect y="39" width="16.9714" height="16.9714" fill="#7640A8"/>
<rect x="16.9714" y="39" width="16.0286" height="16.9714" fill="#4C42F7"/>
<rect y="55.9712" width="16.9714" height="16.0286" fill="#7169F3"/>
<rect x="16.9714" y="55.9712" width="16.0286" height="16.0286" fill="#8D86FA"/>
<path d="M96.8305 36.9056C98.9874 37.3653 100.72 38.4438 102.028 40.141C103.337 41.803 103.991 43.7124 103.991 45.8694C103.991 48.981 102.895 51.4562 100.702 53.295C98.5454 55.0983 95.5222 56 91.6326 56H74.2885V18.7659H91.0491C94.8326 18.7659 97.7852 19.6322 99.9068 21.3649C102.064 23.0975 103.142 25.449 103.142 28.4192C103.142 30.6115 102.559 32.4326 101.392 33.8823C100.26 35.3321 98.7399 36.3398 96.8305 36.9056ZM83.3583 33.8293H89.2988C90.7839 33.8293 91.9154 33.511 92.6934 32.8746C93.5066 32.2027 93.9133 31.2303 93.9133 29.9574C93.9133 28.6844 93.5066 27.712 92.6934 27.0402C91.9154 26.3683 90.7839 26.0324 89.2988 26.0324H83.3583V33.8293ZM90.0414 48.6805C91.5618 48.6805 92.7287 48.3446 93.542 47.6727C94.3906 46.9655 94.815 45.9578 94.815 44.6494C94.815 43.3411 94.373 42.3157 93.489 41.5731C92.6403 40.8306 91.4558 40.4593 89.9353 40.4593H83.3583V48.6805H90.0414ZM118.321 16.7504V56H109.251V16.7504H118.321ZM154.119 26.4037V56H145.049V51.969C144.13 53.2773 142.875 54.3381 141.283 55.1514C139.728 55.9293 137.995 56.3182 136.085 56.3182C133.822 56.3182 131.825 55.8232 130.092 54.8331C128.359 53.8077 127.016 52.3402 126.061 50.4308C125.106 48.5214 124.629 46.276 124.629 43.6947V26.4037H133.646V42.4748C133.646 44.455 134.158 45.9931 135.184 47.0893C136.209 48.1854 137.588 48.7335 139.321 48.7335C141.089 48.7335 142.486 48.1854 143.511 47.0893C144.537 45.9931 145.049 44.455 145.049 42.4748V26.4037H154.119ZM188.533 40.7245C188.533 41.5731 188.48 42.4571 188.374 43.3765H167.847C167.989 45.2152 168.572 46.6296 169.598 47.6197C170.658 48.5744 171.949 49.0518 173.47 49.0518C175.733 49.0518 177.306 48.097 178.19 46.1876H187.843C187.348 48.1324 186.447 49.8827 185.138 51.4386C183.865 52.9944 182.257 54.2143 180.312 55.0983C178.367 55.9823 176.192 56.4243 173.788 56.4243C170.888 56.4243 168.307 55.8055 166.044 54.5679C163.781 53.3303 162.013 51.5623 160.74 49.2639C159.467 46.9655 158.831 44.2782 158.831 41.2018C158.831 38.1255 159.449 35.4382 160.687 33.1398C161.96 30.8414 163.728 29.0734 165.991 27.8358C168.254 26.5982 170.853 25.9794 173.788 25.9794C176.652 25.9794 179.198 26.5805 181.426 27.7827C183.653 28.985 185.386 30.6999 186.623 32.9276C187.896 35.1553 188.533 37.7542 188.533 40.7245ZM179.251 38.3377C179.251 36.7818 178.721 35.5442 177.66 34.6249C176.599 33.7055 175.273 33.2458 173.682 33.2458C172.161 33.2458 170.871 33.6878 169.81 34.5718C168.784 35.4558 168.148 36.7111 167.9 38.3377H179.251ZM191.514 41.1488C191.514 38.1078 192.08 35.4382 193.212 33.1398C194.379 30.8414 195.952 29.0734 197.932 27.8358C199.912 26.5982 202.122 25.9794 204.562 25.9794C206.507 25.9794 208.275 26.386 209.866 27.1993C211.493 28.0126 212.766 29.1087 213.685 30.4878V16.7504H222.755V56H213.685V51.7568C212.836 53.1712 211.617 54.3027 210.025 55.1514C208.469 56 206.648 56.4243 204.562 56.4243C202.122 56.4243 199.912 55.8055 197.932 54.5679C195.952 53.295 194.379 51.5093 193.212 49.2109C192.08 46.8771 191.514 44.1898 191.514 41.1488ZM213.685 41.2018C213.685 38.9388 213.049 37.1531 211.776 35.8448C210.538 34.5365 209.018 33.8823 207.214 33.8823C205.411 33.8823 203.873 34.5365 202.6 35.8448C201.362 37.1178 200.743 38.8858 200.743 41.1488C200.743 43.4118 201.362 45.2152 202.6 46.5589C203.873 47.8672 205.411 48.5214 207.214 48.5214C209.018 48.5214 210.538 47.8672 211.776 46.5589C213.049 45.2506 213.685 43.4649 213.685 41.2018ZM240.561 25.9794C242.647 25.9794 244.468 26.4037 246.024 27.2523C247.615 28.101 248.835 29.2148 249.684 30.5938V26.4037H258.754V55.947C258.754 58.6697 258.206 61.1272 257.109 63.3195C256.049 65.5472 254.404 67.3152 252.177 68.6235C249.984 69.9318 247.244 70.586 243.956 70.586C239.571 70.586 236.017 69.5429 233.295 67.4566C230.572 65.4058 229.016 62.6123 228.627 59.0763H237.591C237.874 60.2078 238.545 61.0918 239.606 61.7283C240.667 62.4002 241.975 62.7361 243.531 62.7361C245.405 62.7361 246.89 62.188 247.987 61.0918C249.118 60.031 249.684 58.3161 249.684 55.947V51.7568C248.8 53.1358 247.58 54.2674 246.024 55.1514C244.468 56 242.647 56.4243 240.561 56.4243C238.121 56.4243 235.911 55.8055 233.931 54.5679C231.951 53.295 230.377 51.5093 229.21 49.2109C228.079 46.8771 227.513 44.1898 227.513 41.1488C227.513 38.1078 228.079 35.4382 229.21 33.1398C230.377 30.8414 231.951 29.0734 233.931 27.8358C235.911 26.5982 238.121 25.9794 240.561 25.9794ZM249.684 41.2018C249.684 38.9388 249.047 37.1531 247.774 35.8448C246.537 34.5365 245.016 33.8823 243.213 33.8823C241.41 33.8823 239.871 34.5365 238.599 35.8448C237.361 37.1178 236.742 38.8858 236.742 41.1488C236.742 43.4118 237.361 45.2152 238.599 46.5589C239.871 47.8672 241.41 48.5214 243.213 48.5214C245.016 48.5214 246.537 47.8672 247.774 46.5589C249.047 45.2506 249.684 43.4649 249.684 41.2018ZM293.214 40.7245C293.214 41.5731 293.161 42.4571 293.055 43.3765H272.529C272.67 45.2152 273.254 46.6296 274.279 47.6197C275.34 48.5744 276.631 49.0518 278.151 49.0518C280.414 49.0518 281.988 48.097 282.872 46.1876H292.525C292.03 48.1324 291.128 49.8827 289.82 51.4386C288.547 52.9944 286.938 54.2143 284.993 55.0983C283.048 55.9823 280.874 56.4243 278.469 56.4243C275.57 56.4243 272.988 55.8055 270.725 54.5679C268.462 53.3303 266.694 51.5623 265.421 49.2639C264.148 46.9655 263.512 44.2782 263.512 41.2018C263.512 38.1255 264.131 35.4382 265.368 33.1398C266.641 30.8414 268.409 29.0734 270.672 27.8358C272.935 26.5982 275.534 25.9794 278.469 25.9794C281.333 25.9794 283.879 26.5805 286.107 27.7827C288.335 28.985 290.067 30.6999 291.305 32.9276C292.578 35.1553 293.214 37.7542 293.214 40.7245ZM283.932 38.3377C283.932 36.7818 283.402 35.5442 282.341 34.6249C281.28 33.7055 279.954 33.2458 278.363 33.2458C276.843 33.2458 275.552 33.6878 274.491 34.5718C273.466 35.4558 272.829 36.7111 272.582 38.3377H283.932Z" fill="white"/>
<mask id="mask0_226_156" style="mask-type:alpha" maskUnits="userSpaceOnUse" x="70" y="13" width="129" height="56">
<path d="M70.75 13H157.138L198.75 41L157.138 69H70.75V13Z" fill="#D9D9D9"/>
</mask>
<g mask="url(#mask0_226_156)">
<path d="M96.8305 36.9056C98.9874 37.3653 100.72 38.4438 102.028 40.141C103.337 41.803 103.991 43.7124 103.991 45.8694C103.991 48.981 102.895 51.4562 100.702 53.295C98.5454 55.0983 95.5222 56 91.6326 56H74.2885V18.7659H91.0491C94.8326 18.7659 97.7852 19.6322 99.9068 21.3649C102.064 23.0975 103.142 25.449 103.142 28.4192C103.142 30.6115 102.559 32.4326 101.392 33.8823C100.26 35.3321 98.7399 36.3398 96.8305 36.9056ZM83.3583 33.8293H89.2988C90.7839 33.8293 91.9154 33.511 92.6934 32.8746C93.5066 32.2027 93.9133 31.2303 93.9133 29.9574C93.9133 28.6844 93.5066 27.712 92.6934 27.0402C91.9154 26.3683 90.7839 26.0324 89.2988 26.0324H83.3583V33.8293ZM90.0414 48.6805C91.5618 48.6805 92.7287 48.3446 93.542 47.6727C94.3906 46.9655 94.815 45.9578 94.815 44.6494C94.815 43.3411 94.373 42.3157 93.489 41.5731C92.6403 40.8306 91.4558 40.4593 89.9353 40.4593H83.3583V48.6805H90.0414ZM118.321 16.7504V56H109.251V16.7504H118.321ZM154.119 26.4037V56H145.049V51.969C144.13 53.2773 142.875 54.3381 141.283 55.1514C139.728 55.9293 137.995 56.3182 136.085 56.3182C133.822 56.3182 131.825 55.8232 130.092 54.8331C128.359 53.8077 127.016 52.3402 126.061 50.4308C125.106 48.5214 124.629 46.276 124.629 43.6947V26.4037H133.646V42.4748C133.646 44.455 134.158 45.9931 135.184 47.0893C136.209 48.1854 137.588 48.7335 139.321 48.7335C141.089 48.7335 142.486 48.1854 143.511 47.0893C144.537 45.9931 145.049 44.455 145.049 42.4748V26.4037H154.119ZM188.533 40.7245C188.533 41.5731 188.48 42.4571 188.374 43.3765H167.847C167.989 45.2152 168.572 46.6296 169.598 47.6197C170.658 48.5744 171.949 49.0518 173.47 49.0518C175.733 49.0518 177.306 48.097 178.19 46.1876H187.843C187.348 48.1324 186.447 49.8827 185.138 51.4386C183.865 52.9944 182.257 54.2143 180.312 55.0983C178.367 55.9823 176.192 56.4243 173.788 56.4243C170.888 56.4243 168.307 55.8055 166.044 54.5679C163.781 53.3303 162.013 51.5623 160.74 49.2639C159.467 46.9655 158.831 44.2782 158.831 41.2018C158.831 38.1255 159.449 35.4382 160.687 33.1398C161.96 30.8414 163.728 29.0734 165.991 27.8358C168.254 26.5982 170.853 25.9794 173.788 25.9794C176.652 25.9794 179.198 26.5805 181.426 27.7827C183.653 28.985 185.386 30.6999 186.623 32.9276C187.896 35.1553 188.533 37.7542 188.533 40.7245ZM179.251 38.3377C179.251 36.7818 178.721 35.5442 177.66 34.6249C176.599 33.7055 175.273 33.2458 173.682 33.2458C172.161 33.2458 170.871 33.6878 169.81 34.5718C168.784 35.4558 168.148 36.7111 167.9 38.3377H179.251ZM191.514 41.1488C191.514 38.1078 192.08 35.4382 193.212 33.1398C194.379 30.8414 195.952 29.0734 197.932 27.8358C199.912 26.5982 202.122 25.9794 204.562 25.9794C206.507 25.9794 208.275 26.386 209.866 27.1993C211.493 28.0126 212.766 29.1087 213.685 30.4878V16.7504H222.755V56H213.685V51.7568C212.836 53.1712 211.617 54.3027 210.025 55.1514C208.469 56 206.648 56.4243 204.562 56.4243C202.122 56.4243 199.912 55.8055 197.932 54.5679C195.952 53.295 194.379 51.5093 193.212 49.2109C192.08 46.8771 191.514 44.1898 191.514 41.1488ZM213.685 41.2018C213.685 38.9388 213.049 37.1531 211.776 35.8448C210.538 34.5365 209.018 33.8823 207.214 33.8823C205.411 33.8823 203.873 34.5365 202.6 35.8448C201.362 37.1178 200.743 38.8858 200.743 41.1488C200.743 43.4118 201.362 45.2152 202.6 46.5589C203.873 47.8672 205.411 48.5214 207.214 48.5214C209.018 48.5214 210.538 47.8672 211.776 46.5589C213.049 45.2506 213.685 43.4649 213.685 41.2018ZM240.561 25.9794C242.647 25.9794 244.468 26.4037 246.024 27.2523C247.615 28.101 248.835 29.2148 249.684 30.5938V26.4037H258.754V55.947C258.754 58.6697 258.206 61.1272 257.109 63.3195C256.049 65.5472 254.404 67.3152 252.177 68.6235C249.984 69.9318 247.244 70.586 243.956 70.586C239.571 70.586 236.017 69.5429 233.295 67.4566C230.572 65.4058 229.016 62.6123 228.627 59.0763H237.591C237.874 60.2078 238.545 61.0918 239.606 61.7283C240.667 62.4002 241.975 62.7361 243.531 62.7361C245.405 62.7361 246.89 62.188 247.987 61.0918C249.118 60.031 249.684 58.3161 249.684 55.947V51.7568C248.8 53.1358 247.58 54.2674 246.024 55.1514C244.468 56 242.647 56.4243 240.561 56.4243C238.121 56.4243 235.911 55.8055 233.931 54.5679C231.951 53.295 230.377 51.5093 229.21 49.2109C228.079 46.8771 227.513 44.1898 227.513 41.1488C227.513 38.1078 228.079 35.4382 229.21 33.1398C230.377 30.8414 231.951 29.0734 233.931 27.8358C235.911 26.5982 238.121 25.9794 240.561 25.9794ZM249.684 41.2018C249.684 38.9388 249.047 37.1531 247.774 35.8448C246.537 34.5365 245.016 33.8823 243.213 33.8823C241.41 33.8823 239.871 34.5365 238.599 35.8448C237.361 37.1178 236.742 38.8858 236.742 41.1488C236.742 43.4118 237.361 45.2152 238.599 46.5589C239.871 47.8672 241.41 48.5214 243.213 48.5214C245.016 48.5214 246.537 47.8672 247.774 46.5589C249.047 45.2506 249.684 43.4649 249.684 41.2018ZM293.214 40.7245C293.214 41.5731 293.161 42.4571 293.055 43.3765H272.529C272.67 45.2152 273.254 46.6296 274.279 47.6197C275.34 48.5744 276.631 49.0518 278.151 49.0518C280.414 49.0518 281.988 48.097 282.872 46.1876H292.525C292.03 48.1324 291.128 49.8827 289.82 51.4386C288.547 52.9944 286.938 54.2143 284.993 55.0983C283.048 55.9823 280.874 56.4243 278.469 56.4243C275.57 56.4243 272.988 55.8055 270.725 54.5679C268.462 53.3303 266.694 51.5623 265.421 49.2639C264.148 46.9655 263.512 44.2782 263.512 41.2018C263.512 38.1255 264.131 35.4382 265.368 33.1398C266.641 30.8414 268.409 29.0734 270.672 27.8358C272.935 26.5982 275.534 25.9794 278.469 25.9794C281.333 25.9794 283.879 26.5805 286.107 27.7827C288.335 28.985 290.067 30.6999 291.305 32.9276C292.578 35.1553 293.214 37.7542 293.214 40.7245ZM283.932 38.3377C283.932 36.7818 283.402 35.5442 282.341 34.6249C281.28 33.7055 279.954 33.2458 278.363 33.2458C276.843 33.2458 275.552 33.6878 274.491 34.5718C273.466 35.4558 272.829 36.7111 272.582 38.3377H283.932Z" fill="#4C42F7"/>
</g>
</svg>
