<svg width="300" height="157" viewBox="0 0 300 157" fill="none" xmlns="http://www.w3.org/2000/svg">
<g clip-path="url(#clip0_220_101)">
<path d="M243.094 3.69341H243.555C243.865 3.69341 244.083 3.64654 244.212 3.54344C244.338 3.44033 244.399 3.30911 244.399 3.15211C244.399 2.99276 244.34 2.86388 244.221 2.76312C244.104 2.64596 243.893 2.59909 243.612 2.59909H243.115V3.677L243.094 3.69341ZM242.027 1.86564H243.944C244.488 1.86564 244.882 1.97578 245.126 2.1937C245.369 2.41632 245.491 2.70923 245.491 3.07712C245.491 3.36769 245.398 3.61608 245.21 3.82697C245.027 4.03787 244.734 4.19252 244.336 4.28626C244.5 4.33312 244.617 4.40342 244.699 4.47372C244.807 4.56745 244.922 4.70805 245.039 4.89551L245.737 6.13745H244.472C244.059 5.3173 243.783 4.83224 243.644 4.6729C243.504 4.51355 243.363 4.43857 243.223 4.43857C243.19 4.43857 243.148 4.43857 243.091 4.45029V6.13745H242.013V1.86564H242.027ZM247.083 4.01444C247.083 3.1193 246.766 2.35539 246.136 1.7227C245.503 1.09002 244.741 0.773674 243.846 0.773674C242.955 0.773674 242.205 1.09236 241.573 1.7227C240.94 2.35539 240.635 3.1193 240.635 4.01444C240.635 4.90488 240.954 5.67114 241.584 6.30382C242.217 6.93651 242.981 7.25285 243.872 7.25285C244.769 7.25285 245.531 6.93651 246.164 6.30382C246.797 5.67114 247.113 4.90723 247.113 4.01444H247.083ZM247.863 4.01444C247.863 4.73382 247.685 5.40166 247.324 6.02263C246.968 6.6436 246.48 7.13335 245.859 7.49187C245.238 7.84805 244.57 8.02614 243.848 8.02614C243.133 8.02614 242.466 7.84805 241.847 7.49187C241.226 7.13335 240.736 6.6436 240.377 6.02263C240.026 5.40166 239.838 4.73382 239.838 4.01444C239.838 3.29973 240.026 2.6319 240.377 2.00858C240.752 1.38527 241.244 0.895525 241.854 0.537002C242.487 0.162077 243.143 -0.00195312 243.869 -0.00195312C244.591 -0.00195312 245.262 0.162077 245.885 0.537002C246.504 0.888495 246.994 1.38058 247.352 1.98984C247.711 2.60612 247.891 3.27864 247.891 3.991L247.863 4.01444ZM49.7577 99.7305H50.2264C50.5358 99.7305 50.7538 99.6837 50.8827 99.5782C51.0069 99.4798 51.0702 99.3486 51.0702 99.1916C51.0702 99.0276 51.0093 98.901 50.8897 98.8026C50.7655 98.6995 50.5616 98.6503 50.2686 98.6503H49.76V99.7282L49.7577 99.7305ZM48.6983 97.9028H50.6155C51.1593 97.9028 51.553 98.0129 51.7968 98.2308C52.0382 98.4534 52.16 98.7464 52.16 99.1166C52.16 99.4025 52.0663 99.6556 51.8835 99.8665C51.696 100.077 51.403 100.227 51.0046 100.323C51.1686 100.387 51.2905 100.455 51.3702 100.523C51.4757 100.621 51.5928 100.769 51.71 100.958L52.4085 102.2H51.1428C50.7444 101.387 50.4632 100.895 50.3225 100.738C50.1819 100.579 50.0413 100.497 49.9007 100.497C49.8772 100.497 49.8303 100.497 49.7835 100.513V102.2H48.7241V97.9028H48.6983ZM53.7538 100.052C53.7538 99.1564 53.435 98.3949 52.8046 97.7622C52.1718 97.1295 51.41 96.8131 50.5171 96.8131C49.6264 96.8131 48.8624 97.1272 48.2296 97.7622C47.5968 98.3949 47.2827 99.1564 47.2827 100.052C47.2827 100.942 47.5968 101.711 48.2296 102.343C48.8624 102.976 49.6241 103.292 50.5171 103.292C51.4077 103.292 52.1718 102.974 52.8046 102.343C53.4374 101.711 53.7538 100.944 53.7538 100.052ZM54.5343 100.052C54.5343 100.771 54.3561 101.439 53.9952 102.06C53.6389 102.681 53.1468 103.17 52.5257 103.529C51.9163 103.904 51.2366 104.068 50.5335 104.068C49.8304 104.068 49.1507 103.904 48.5413 103.529C47.9225 103.178 47.4303 102.685 47.0718 102.076C46.7155 101.462 46.5327 100.787 46.5327 100.075C46.5327 99.358 46.7155 98.6925 47.0718 98.0692C47.4303 97.4458 47.9225 96.9561 48.5436 96.5999C49.1671 96.2437 49.8327 96.061 50.5499 96.061C51.2671 96.061 51.9327 96.2437 52.5561 96.5999C53.1796 96.9584 53.6718 97.4435 54.0327 98.0715C54.3843 98.6995 54.5671 99.3603 54.5671 100.087L54.5343 100.052ZM40.4343 81.317H59.1889L72.6889 45.8749L71.1889 81.317H91.071L121.453 0.0285096H102.891L89.0085 35.9393L91.2585 0.0285096H71.1913L40.4343 81.317ZM124.458 0.0285096L94.2585 81.317H113.013L143.39 0.0285096H124.453H124.458ZM168.902 75.6931L196.101 2.17964L167.212 32.9376L168.9 75.6908L168.902 75.6931ZM37.6639 54.0295C37.6639 54.0295 29.9296 68.6563 29.9296 81.3147C29.9296 81.3147 29.2264 111.145 60.0327 111.145H64.2514C64.2514 111.145 70.4389 113.113 177.061 81.3381H150.056L148.65 47.8643L135.989 81.3264H116.578L147.244 0.0355394H165.811L157.373 23.3793L177.342 0.0331961H235.861L230.794 13.5352H210.82L204.633 30.6927H223.2L217.294 45.8772H199.008L191.695 65.8467H213.637L211.95 71.7517C211.95 71.7517 291.562 51.2199 300 48.9703C300 48.9703 73.1014 156.476 35.9647 156.476C35.9647 156.476 0.110043 156.693 0.110043 127.442C0.110043 127.442 -3.96808 100.162 37.6663 54.0318L37.6639 54.0295Z" fill="white"/>
</g>
<defs>
<clipPath id="clip0_220_101">
<rect width="300" height="157" fill="white"/>
</clipPath>
</defs>
</svg>
