<svg width="300" height="43" viewBox="0 0 300 43" fill="none" xmlns="http://www.w3.org/2000/svg">
<path d="M125.056 26.201L125.005 15.6426L121.213 20.8977L125.056 26.201ZM176.799 24.307V18.8935C176.052 19.0898 175.249 19.0829 174.47 18.8125C173.054 18.3184 170.315 18.2392 170.305 18.2392C168.606 18.2323 167.378 18.7092 166.768 19.534C166.677 19.658 166.589 19.8095 166.51 19.9886C166.418 20.1837 166.349 20.388 166.301 20.5981C166.287 20.6601 166.315 20.543 166.298 20.6326V20.6498C165.988 22.0686 165.974 23.4323 166.594 24.1624C166.678 24.2588 166.782 24.3535 166.915 24.4465C167.094 24.5739 167.299 24.6858 167.53 24.7788L167.54 24.7822C170.188 25.8481 175.504 24.4275 175.521 24.4241C175.952 24.3104 176.382 24.276 176.799 24.307ZM74.4553 21.5968C74.488 22.3785 74.4122 23.1258 74.2624 23.83C75 23.2904 75.891 23.0008 76.8051 23.0036C75.9403 22.0238 75.1168 20.939 74.4691 19.6821C74.0397 18.8598 73.7117 17.9885 73.4923 17.0872L73.3235 17.1802C73.9213 18.37 74.3726 19.8112 74.4536 21.5486V21.5658L74.4553 21.5968ZM283.25 4.26627C283.671 4.37819 284.112 4.63647 284.525 4.98256C285.111 4.63819 285.75 4.43157 286.386 4.4264L288.155 4.40746C288.529 4.40402 288.899 4.46428 289.259 4.5762C289.506 4.50733 289.75 4.46772 289.993 4.45739L291.733 4.39025C293.964 4.30588 296.128 6.45475 296.064 8.68628C296.064 8.69489 295.997 12.006 295.912 13.0546C295.799 14.4769 295.327 15.5668 294.634 16.3951C294.987 16.9495 295.233 17.5263 295.273 17.9929L295.371 19.1655C295.414 19.701 295.34 20.221 295.18 20.7083C295.271 20.9408 295.342 21.1594 295.392 21.3592C295.56 22.0863 295.578 22.84 295.447 23.5745C295.315 24.309 295.036 25.0093 294.625 25.6328C294.696 25.7654 294.753 25.9014 294.798 26.0357L296.252 30.5418C296.743 30.7106 297.308 30.9758 297.876 31.4097C299.013 32.274 299.945 33.5964 299.998 35.6351C300.005 35.8331 299.988 36.0828 299.959 36.3755C299.771 38.137 298.861 39.3629 297.749 40.1671C296.895 40.7793 295.894 41.1537 294.848 41.2518C294.693 41.2582 294.538 41.2594 294.382 41.2553C294.013 41.2479 293.645 41.2006 293.285 41.1141C292.276 40.8682 291.351 40.3562 290.606 39.6315C289.903 38.9517 289.399 38.0925 289.149 37.1469C288.537 37.4896 287.893 37.71 287.376 37.7082L285.492 37.6996C284.941 37.6958 284.398 37.5799 283.894 37.359C283.39 37.1382 282.937 36.817 282.561 36.4151C281.131 37.2778 279.392 37.9063 277.273 38.2782C271.819 39.2355 265.171 37.6669 265.15 37.6617C265.032 37.6332 264.916 37.5963 264.804 37.5515C264.194 37.9067 263.501 38.0939 262.795 38.0939H253.882C252.833 38.0939 251.294 37.1917 250.467 36.205C249.673 37.3311 248.36 38.149 247.049 38.149H238.779C237.854 38.149 236.929 37.7358 236.181 37.0952C235.387 37.9441 234.289 38.5192 233.194 38.5192H213.298C212.148 38.5192 210.993 37.8787 210.189 36.9558C209.384 37.9613 208.166 38.669 206.942 38.669H198.917C196.828 38.669 194.734 36.5787 194.734 34.4866V28.2673H192.843V34.2886C192.843 36.379 190.75 38.471 188.657 38.471H180.982C180.064 38.471 179.146 38.0681 178.405 37.4362C177.819 37.9837 177.147 38.4004 176.538 38.5123C175.003 38.7999 171.976 39.3337 168.672 39.3905C165.028 39.4542 160.963 38.9514 157.639 37.0298C156.07 36.1389 154.67 34.9777 153.505 33.5999V34.4367C153.505 36.527 151.415 38.6174 149.324 38.6174H129.28C128.795 38.6174 128.31 38.5037 127.85 38.304C127.263 38.6165 126.606 38.7763 125.94 38.7689L116.451 38.669C115.525 38.6604 113.493 37.5636 112.985 36.7905L111.456 34.466C111.39 36.5201 109.314 38.5554 107.257 38.5433L99.6068 38.4951C97.8376 38.4848 96.0856 37.0023 95.5825 35.2804C94.182 36.6923 92.2078 37.827 89.448 38.347C89.1184 38.4121 88.7869 38.4672 88.454 38.5123C80.8569 39.4473 75.8162 37.6307 75.8025 37.6256C75.0324 37.3552 74.1194 36.4237 73.5509 35.4646C73.2787 35.6024 72.9772 35.7505 72.6534 35.9089L72.6603 36.1069C72.6671 36.4168 72.6654 36.6286 72.6551 36.7543L72.6224 36.7715C72.5618 37.5474 72.3305 38.3003 71.9448 38.9763C71.5591 39.6523 71.0287 40.2347 70.3914 40.6819C69.5181 41.307 68.4919 41.6848 67.4215 41.7753C66.9077 41.7969 66.3934 41.7505 65.8917 41.6375C64.8724 41.3888 63.9385 40.8715 63.1871 40.1395H63.1699C63.0074 39.9786 62.8544 39.8084 62.7116 39.6298C61.728 39.9088 60.6926 40.1756 59.6108 40.427C52.6183 42.0439 44.358 42.9496 35.5928 42.5966C33.8596 42.521 32.1288 42.3976 30.4023 42.2264C28.6318 42.0535 26.8665 41.8307 25.1085 41.5583H25.093L25.0723 41.5566V41.5531C10.6619 39.3182 1.98807 33.4432 1.96395 33.426C-0.647667 31.668 -0.332412 27.5527 2.50316 26.1907L4.05187 25.4451C3.46909 24.2676 3.12096 22.9881 3.02686 21.6777C2.91833 19.9197 3.4851 18.2237 4.26032 16.767L2.19307 15.6925C-0.508129 14.2892 -0.769979 10.3307 1.71933 8.57092C6.62042 5.10653 15.1719 2.94733 15.196 2.94044V2.94388C22.8621 0.915532 29.7598 0.0993668 36.0959 0.00810827C42.3665 -0.0797066 48.141 0.555665 53.5865 1.43381C64.66 3.21422 75.0203 8.67424 75.1582 8.74828C76.2972 7.19981 77.8023 5.95751 79.539 5.13237L79.5373 5.12892C86.2558 2.22586 94.8073 4.74151 94.8314 4.75012C95.4619 4.92919 96.1493 5.45607 96.7109 6.10866C97.5292 5.04627 98.8074 4.29382 100.077 4.31448L107.703 4.43846C109.311 4.46429 110.901 5.71952 111.536 7.24853L112.021 6.49264C112.553 5.66443 114.599 4.55382 115.583 4.56588L124.793 4.68641C125.582 4.69502 126.293 4.92919 126.894 5.31316C127.561 4.83793 128.335 4.5435 129.112 4.53661L148.905 4.36615C151.016 4.3472 153.123 6.43925 153.123 8.54681V11.2656C154.196 9.77194 155.513 8.46976 157.019 7.41383C157.92 6.7918 158.882 6.26277 159.889 5.83489C160.942 5.38386 162.039 5.04452 163.162 4.82244L163.187 4.81726C170.329 3.41911 176.922 5.11171 176.937 5.11687C177.318 5.2133 177.7 5.41476 178.064 5.68509C178.855 4.8827 179.914 4.34376 180.972 4.34032L188.677 4.31276C190.777 4.30587 192.86 6.39621 192.86 8.49516V13.6711H194.674V8.47277C194.674 6.38071 196.767 4.29037 198.857 4.29037H206.761C207.948 4.29037 209.14 4.97224 209.948 5.94681C210.749 4.9774 211.936 4.29726 213.124 4.29037L232.794 4.18534C233.831 4.18018 234.863 4.68296 235.647 5.44747C236.424 4.6227 237.487 4.05793 238.555 4.04243C238.586 4.04243 248.676 3.91674 253.541 3.94084C257.965 3.96323 261.525 5.44402 263.686 8.56575C264.163 7.91189 264.713 7.31355 265.324 6.78191C266.505 5.76082 267.866 4.96898 269.338 4.44707C275.517 2.21898 283.226 4.2611 283.25 4.26627Z" fill="#861316"/>
<path fill-rule="evenodd" clip-rule="evenodd" d="M66.699 35.5094V35.7915H67.1098C67.1098 35.7915 67.2772 35.7657 67.2686 35.6298C67.2599 35.4957 67.2306 35.4613 67.1322 35.4509C67.0356 35.4372 66.7974 35.4509 66.7974 35.4509C66.7974 35.4509 66.699 35.4802 66.699 35.5094ZM66.4298 35.205V36.5775H66.6938L66.7128 36.0254L67.0425 36.022C67.0425 36.022 67.2513 36.0461 67.2479 36.2421C67.2427 36.4055 67.2323 36.4932 67.2789 36.5517H67.5758C67.5758 36.5517 67.5171 36.4915 67.5171 36.3883C67.5171 36.2868 67.5171 36.0908 67.4843 36.022C67.4622 35.9812 67.4362 35.9426 67.4067 35.9067C67.4067 35.9067 67.5585 35.7468 67.5465 35.5335C67.5451 35.4524 67.5146 35.3744 67.4604 35.3138C67.4062 35.2532 67.332 35.214 67.2513 35.2033L66.4298 35.205ZM67.0546 34.7681C67.0546 34.7681 66.302 34.6684 65.9568 35.4681C65.8828 35.6396 65.8533 35.827 65.8712 36.0128C65.889 36.1987 65.9535 36.3771 66.0588 36.5315C66.164 36.6859 66.3066 36.8115 66.4734 36.8965C66.6403 36.9815 66.8259 37.0232 67.0131 37.0178C67.7656 36.9886 68.2299 36.3367 68.1022 35.6281C67.9779 34.9229 67.2375 34.7458 67.0546 34.7681ZM67.0977 34.517C67.0977 34.517 65.9137 34.5032 65.6565 35.6109C65.3959 36.7186 66.4298 37.25 66.9217 37.2586C67.4136 37.2655 68.3853 36.9232 68.3577 35.8672C68.33 34.8163 67.4981 34.5875 67.0977 34.517ZM283.067 13.6435C283.067 13.6435 282.54 9.45023 282.466 7.99342C282.466 7.99342 275.973 6.27862 271.025 8.06222C266.07 9.84754 264.525 14.8337 268.21 19.0287C271.895 23.2151 275.65 25.0538 275.524 26.7118C275.4 28.3716 274.257 28.2976 271.442 28.2254C268.634 28.1497 265.773 26.913 265.773 26.913L266.346 33.2597C266.346 33.2597 272.195 34.634 276.819 33.8256C281.141 33.0705 283.029 31.139 283.51 28.2804C283.648 27.4789 284.42 24.2763 280.302 20.759C277.689 18.5265 274.799 16.3714 274.554 15.2534C274.304 14.1371 274.855 13.1224 276.543 12.8248C278.239 12.5255 281.722 13.1499 283.067 13.6435ZM238.822 7.91775L238.974 33.6312H247.26L247.186 13.0467C247.186 13.0467 250.422 12.5806 251.841 13.1499C253.256 13.7175 254.076 15.305 253.581 16.791C253.082 18.2805 250.719 18.9496 248.23 18.8756L254.105 33.5762H263.035L257.412 21.4797C257.412 21.4797 261.763 20.2654 261.763 15.207C261.763 10.1503 258.581 7.84379 253.753 7.81799C248.929 7.79219 238.822 7.91775 238.822 7.91775ZM213.297 8.16542L213.445 34.001H233.378V28.1738H221.084V23.9822H231.461V18.1068H220.963V13.8671H233.005V8.0605L213.297 8.16542ZM181.07 8.21357V33.9511H188.759V23.7586H199.037V34.1489H207.076L206.904 8.16542H198.985V17.5341H188.788V8.18606L181.07 8.21357ZM175.923 14.5602L176 8.86028C176 8.86028 170.277 7.39488 164.053 8.60917C157.83 9.82347 154.426 15.2826 154.076 20.1398C153.729 24.997 154.699 30.1552 159.776 33.0843C164.849 36.0065 173.061 34.5961 175.849 34.075L176.644 28.1256C176.644 28.1256 169.999 29.9075 166.045 28.32C162.088 26.7324 161.49 22.9881 162.264 19.4432C163.032 15.8984 166.069 13.6899 170.476 13.7415C170.476 13.7415 173.86 13.843 175.923 14.5602ZM129.146 8.40794L129.274 34.099H149.352V28.3217H136.935V24.1577H147.337V18.3046H136.835V14.0408H148.979V8.23765L129.146 8.40794ZM115.509 8.43718L107.599 20.7315L116.453 34.1489L125.96 34.2487L116.032 20.5887L124.738 8.55757L115.509 8.43718ZM99.9565 8.18778L99.5612 33.9787L107.226 34.0251L107.599 8.30989L99.9565 8.18778ZM93.636 8.45954C93.636 8.45954 86.4457 6.3543 81.0952 8.65905C81.0952 8.65905 78.1335 9.87679 77.4345 13.1224C76.7372 16.3714 78.7307 18.8275 80.7241 20.8846C82.7142 22.9434 86.4215 25.4734 86.3956 26.8838C86.3715 28.2959 85.077 28.5178 82.9851 28.3698C80.9002 28.2236 78.2111 27.5047 76.5922 26.8356L77.0858 33.3526C77.0858 33.3526 81.2212 34.8404 87.8627 34.0251C94.5094 33.2047 94.6319 27.7541 94.2815 25.9155C93.9329 24.082 92.6177 21.877 90.2773 19.9179C87.9386 17.9572 84.4557 15.5269 86.0988 13.9393C87.7384 12.3518 92.3657 13.7656 93.9622 14.3091L93.636 8.45954ZM20.987 22.3964C20.987 22.3964 18.0443 22.503 16.8206 24.1662C15.5917 25.8277 16.5807 27.503 19.715 28.5986C22.8459 29.6925 27.7769 30.3874 35.2072 30.6316C42.6461 30.8758 51.8937 29.9161 54.6829 29.1249C57.4669 28.3354 61.5436 27.0248 61.7006 25.083C61.8491 23.136 61.2122 22.6148 58.3195 21.6792C55.4285 20.7332 51.1965 19.5757 45.3386 19.1663C39.4858 18.7466 29.5322 17.9623 29.9534 16.1925C30.3642 14.4209 39.8828 14.2885 43.8749 15.035C47.8602 15.7728 50.2748 16.5847 50.8185 16.5847C51.3725 16.5847 55.123 16.435 58.2142 14.2919C58.2142 14.2919 58.4524 13.7467 58.0174 13.5713C52.4374 11.3181 43.4176 11.3491 37.3698 11.3456C33.6659 11.3456 17.4367 11.8238 18.2445 16.9338C18.5759 19.0304 22.9598 20.5388 29.4442 21.4556C35.9355 22.3741 41.4189 22.5701 43.6765 22.8539C45.9392 23.136 48.7836 24.0785 48.806 24.997C48.8336 25.9155 46.4397 26.5914 41.5294 26.913C36.6138 27.2415 29.4667 26.9818 24.4079 24.9746C24.4079 24.9746 22.9097 24.3813 22.2798 23.5075C21.6394 22.6372 21.6394 22.3964 20.987 22.3964ZM68.1108 12.8833C68.1108 12.8833 58.732 7.59267 48.0172 6.12726C44.5956 5.65431 41.1453 5.41696 37.6908 5.41691C19.4475 5.42551 9.17975 12.4241 9.17975 12.4241L14.5699 15.5372C14.5699 15.5372 8.03026 20.6489 14.4698 26.2199L9.11244 28.9392C9.11244 28.9392 16.0819 34.2796 29.1387 36.0512C42.1956 37.8228 51.8644 35.5301 55.0177 34.8747C58.178 34.2126 65.3821 31.7238 68.2092 29.7579L62.9468 26.6103C62.9468 26.6103 69.0636 21.9595 62.719 16.1289L68.1108 12.8833ZM15.9904 6.68453C15.9904 6.68453 8.15798 8.65561 3.87933 11.6724L10.3689 15.035C10.3689 15.035 6.79275 18.198 6.97225 21.1099C7.16901 24.2746 10.2188 26.6791 10.2188 26.6791L4.05711 29.6306C4.05711 29.6306 12.0276 35.0158 25.5246 37.1004C37.6494 38.9786 49.2962 38.1513 58.5404 36.0202C67.7777 33.8875 73.2387 30.4768 73.2387 30.4768L67.1598 27.0713C67.1598 27.0713 70.2838 24.6513 70.1509 21.4367C70.018 18.2203 67.5844 16.3559 66.894 15.5664L73.1247 12.1454C73.1247 12.1454 63.2126 6.91672 52.7861 5.24664C42.363 3.57139 30.623 2.81805 15.9904 6.68453ZM285.794 33.184L288.828 27.0575L291.12 26.9818L293.086 33.0602H291.12L290.652 31.2387L288.481 31.2559L287.682 33.1909L285.794 33.184ZM290.307 29.8507L289.805 27.9863L288.978 29.8507H290.307ZM291.481 19.1887L291.382 18.0157C291.382 18.0157 290.25 17.6338 289.14 17.8832C288.027 18.1292 287.283 18.972 287.799 20.1484C287.799 20.1484 288.245 20.7401 288.548 21.0892C288.845 21.4349 289.227 22.0129 289.192 22.2468C289.158 22.479 288.973 22.4944 288.548 22.4583C288.117 22.4257 287.435 22.3259 287.435 22.3259L287.584 23.7672C287.584 23.7672 289.327 24.0183 290.368 23.7672C291.412 23.5161 291.867 22.4944 291.548 21.7996C291.231 21.1064 290.604 20.673 290.204 20.2619C289.807 19.8457 289.458 19.1887 290.034 19.1182C290.618 19.058 291.481 19.1887 291.481 19.1887ZM286.705 8.29786L286.591 12.3277C286.591 12.3277 286.57 13.2084 287.302 13.671C288.031 14.1285 288.778 14.23 289.777 14.1647C290.771 14.0976 291.931 13.6865 292.03 12.4154C292.135 11.141 292.182 8.26518 292.182 8.26518L290.438 8.33053L290.259 11.9493C290.259 11.9493 290.273 12.8231 289.308 12.7921C288.346 12.7612 288.381 11.9786 288.381 11.9786L288.483 8.27894L286.705 8.29786ZM294.522 35.0502V35.3219H294.914C294.914 35.3219 295.079 35.2961 295.069 35.1672C295.062 35.0364 295.033 35.002 294.941 34.9917C294.846 34.9779 294.615 34.9917 294.615 34.9917C294.615 34.9917 294.522 35.021 294.522 35.0502ZM294.26 34.7544V36.0804H294.515L294.536 35.5473L294.853 35.5421C294.853 35.5421 295.055 35.5627 295.048 35.7554C295.045 35.9119 295.035 35.9979 295.079 36.0529H295.369C295.369 36.0529 295.312 35.9944 295.312 35.8947C295.312 35.7967 295.312 35.6092 295.278 35.5438C295.243 35.4785 295.204 35.4303 295.204 35.4303C295.204 35.4303 295.352 35.2789 295.338 35.0708C295.336 34.9929 295.307 34.9181 295.255 34.8596C295.203 34.8011 295.133 34.7626 295.055 34.7509L294.26 34.7544ZM294.862 34.3347C294.862 34.3347 294.137 34.2384 293.804 35.0106C293.471 35.7829 294.097 36.5345 294.822 36.507C295.547 36.4795 295.996 35.85 295.873 35.1689C295.753 34.4843 295.041 34.314 294.862 34.3347ZM294.907 34.0905C294.907 34.0905 293.764 34.0784 293.511 35.1465C293.26 36.2129 294.26 36.7289 294.734 36.734C295.209 36.7409 296.146 36.4107 296.12 35.3959C296.094 34.3811 295.29 34.1593 294.907 34.0905Z" fill="white"/>
</svg>
